HIERARCHY
ROOT Hips
{
 OFFSET 0.000000 0.000000 0.000000
 CHANNELS 6 Xposition Yposition Zposition Yrotation Xrotation Zrotation
 JOINT Chest
 {
  OFFSET 0.000000 9.585900 0.002600
  CHANNELS 3 Yrotation Xrotation Zrotation
  JOINT Chest2
  {
   OFFSET 0.000000 9.601200 -0.005300
   CHANNELS 3 Yrotation Xrotation Zrotation
   JOINT Chest3
   {
    OFFSET 0.000000 9.561800 0.000000
    CHANNELS 3 Yrotation Xrotation Zrotation
    JOINT Chest4
    {
     OFFSET 0.000000 9.552100 0.000000
     CHANNELS 3 Yrotation Xrotation Zrotation
     JOINT Neck
     {
      OFFSET 0.000000 14.453000 0.000000
      CHANNELS 3 Yrotation Xrotation Zrotation
      JOINT Head
      {
       OFFSET 0.000000 8.936500 -0.011300
       CHANNELS 3 Yrotation Xrotation Zrotation
       End Site
       {
        OFFSET 0.000000 17.073600 -0.006000
       }
      }
     }
     JOINT RightCollar
     {
      OFFSET -2.921100 9.558500 0.000000
      CHANNELS 3 Yrotation Xrotation Zrotation
      JOINT RightShoulder
      {
       OFFSET -13.519700 0.000000 0.000000
       CHANNELS 3 Yrotation Xrotation Zrotation
       JOINT RightElbow
       {
        OFFSET 0.000000 -29.696600 0.000000
        CHANNELS 3 Yrotation Xrotation Zrotation
        JOINT RightWrist
        {
         OFFSET 0.000000 -24.004700 0.000000
         CHANNELS 3 Yrotation Xrotation Zrotation
         End Site
         {
          OFFSET 0.000000 -17.728500 0.000000
         }
        }
       }
      }
     }
     JOINT LeftCollar
     {
      OFFSET 2.921100 9.558500 0.000000
      CHANNELS 3 Yrotation Xrotation Zrotation
      JOINT LeftShoulder
      {
       OFFSET 13.519700 0.000000 0.000000
       CHANNELS 3 Yrotation Xrotation Zrotation
       JOINT LeftElbow
       {
        OFFSET 0.000000 -29.696600 0.000000
        CHANNELS 3 Yrotation Xrotation Zrotation
        JOINT LeftWrist
        {
         OFFSET 0.000000 -24.004700 0.000000
         CHANNELS 3 Yrotation Xrotation Zrotation
         End Site
         {
          OFFSET 0.000000 -17.728500 0.000000
         }
        }
       }
      }
     }
    }
   }
  }
 }
 JOINT RightHip
 {
  OFFSET -7.771700 -0.012900 -0.001300
  CHANNELS 3 Yrotation Xrotation Zrotation
  JOINT RightKnee
  {
   OFFSET 0.000000 -40.869800 0.001200
   CHANNELS 3 Yrotation Xrotation Zrotation
   JOINT RightAnkle
   {
    OFFSET 0.000000 -39.717900 0.002100
    CHANNELS 3 Yrotation Xrotation Zrotation
    JOINT RightToe
    {
     OFFSET 0.000000 -4.965400 11.033500
     CHANNELS 3 Yrotation Xrotation Zrotation
     End Site
     {
      OFFSET 0.000000 -1.423100 5.872300
     }
    }
   }
  }
 }
 JOINT LeftHip
 {
  OFFSET 7.771700 -0.012900 -0.001300
  CHANNELS 3 Yrotation Xrotation Zrotation
  JOINT LeftKnee
  {
   OFFSET 0.000000 -40.869800 0.001200
   CHANNELS 3 Yrotation Xrotation Zrotation
   JOINT LeftAnkle
   {
    OFFSET 0.000000 -39.717900 0.002100
    CHANNELS 3 Yrotation Xrotation Zrotation
    JOINT LeftToe
    {
     OFFSET 0.000000 -4.965400 11.033500
     CHANNELS 3 Yrotation Xrotation Zrotation
     End Site
     {
      OFFSET 0.000000 -1.423100 5.872300
     }
    }
   }
  }
 }
}
MOTION
Frames: 5
Frame Time: 0.008333
-10.944256 57.506034 30.900307 177.829704 -43.367722 -1.241977 7.185532 22.507914 2.633747 1.037476 3.408161 0.115253 1.676426 5.487426 0.216356 6.087060 19.010746 1.496820 -5.441803 14.690480 9.905120 -13.754206 -6.858464 20.492036 -1.161002 5.028456 3.213897 -6.987330 -23.973382 0.978636 -102.030399 -79.531292 66.649454 -1.117738 -21.977367 -50.714582 1.494898 1.828496 3.670617 16.655585 -6.257345 -3.335814 74.851693 -29.743701 -87.324190 -1.641609 -21.813837 40.587354 12.745767 -29.246528 -0.923309 -6.627024 69.048484 -7.309806 2.108436 6.534546 8.543988 -0.220683 0.492522 -0.008969 -4.391865 -31.303289 -2.122520 27.245736 70.772456 22.148419 -24.088308 2.507553 -0.066365 0.124730 -0.633340 0.094073
-10.957821 57.504424 30.941604 177.864148 -43.481653 -1.247083 7.201162 22.502010 2.649502 1.039042 3.405949 0.117015 1.679114 5.484005 0.219221 6.099232 19.002973 1.508443 -5.680129 14.766457 9.936147 -14.188539 -6.659245 20.616581 -1.216845 5.033304 3.244835 -6.813770 -23.895696 1.133668 -101.041713 -79.679762 65.760637 -1.112347 -21.989223 -50.702570 1.458500 1.921338 3.649077 16.186335 -6.081775 -3.857223 74.884334 -29.812160 -87.131442 -1.637119 -21.873842 40.670316 12.768982 -29.117517 -0.899309 -6.628629 68.981951 -7.347213 2.067027 6.575044 8.600522 -0.213307 0.489293 -0.020434 -4.408646 -31.192824 -2.146039 27.190887 70.698231 22.083123 -24.039420 2.599783 -0.098982 0.120190 -0.623674 0.075546
-10.968252 57.504020 30.981456 177.889654 -43.607550 -1.261202 7.216504 22.505429 2.678134 1.039172 3.402300 0.118664 1.679466 5.478490 0.221814 6.104638 18.993198 1.518608 -5.887200 14.843638 9.953300 -14.559870 -6.467332 20.703751 -1.252811 5.043888 3.272368 -6.691882 -23.847252 1.325050 -100.277279 -79.773626 65.064799 -1.096603 -22.000929 -50.714262 1.452541 2.029500 3.618617 15.754452 -5.939408 -4.428786 75.058134 -29.853051 -86.951275 -1.646517 -21.957298 40.777485 12.784311 -28.977614 -0.854911 -6.647874 68.915430 -7.396093 2.035554 6.598128 8.631979 -0.197336 0.481725 -0.035872 -4.455329 -31.076503 -2.148649 27.190492 70.644448 22.051042 -23.982746 2.678762 -0.121715 0.071660 -0.638378 0.071855
-10.982004 57.496392 31.027710 177.922652 -43.675421 -1.257814 7.198732 22.452794 2.668230 1.037911 3.397530 0.120185 1.677606 5.471272 0.224167 6.103444 18.982079 1.527158 -6.060507 14.920561 9.957423 -14.864232 -6.286191 20.754920 -1.266914 5.060413 3.294543 -6.616506 -23.821450 1.547913 -99.752147 -79.820887 64.578652 -1.077958 -22.009194 -50.739398 1.474042 2.147878 3.578503 15.338456 -5.832016 -5.012468 75.354947 -29.861440 -86.788456 -1.669816 -22.063891 40.909488 12.799213 -28.896097 -0.856831 -6.658943 68.857340 -7.432207 2.010290 6.598863 8.632588 -0.190574 0.512460 -0.012946 -4.554300 -31.031256 -2.153969 27.249862 70.581056 22.033418 -23.924563 2.783519 -0.183708 0.025254 -0.664522 0.100835
-10.999440 57.493609 31.067098 178.000531 -43.791699 -1.257075 7.127281 22.448658 2.629489 1.035328 3.391941 0.121598 1.673645 5.462783 0.226350 6.095677 18.970255 1.534310 -6.199261 14.996568 9.948464 -15.100563 -6.117236 20.770013 -1.263768 5.084272 3.309175 -6.565113 -23.812353 1.790182 -99.449499 -79.828937 64.279106 -1.062951 -22.013969 -50.770378 1.516177 2.275040 3.527569 14.922991 -5.765212 -5.571441 75.739424 -29.837618 -86.639513 -1.703424 -22.191777 41.059095 12.770650 -28.762300 -0.890237 -6.643920 68.820889 -7.429259 1.988563 6.602889 8.615780 -0.172633 0.522317 0.001319 -4.653904 -30.935019 -2.201157 27.275692 70.507481 21.989628 -23.909099 2.911679 -0.236601 0.005315 -0.686627 0.085744
